<?xml version="1.0" encoding="UTF-8" standalone="no"?>
<svg
   xmlns:dc="http://purl.org/dc/elements/1.1/"
   xmlns:cc="http://creativecommons.org/ns#"
   xmlns:rdf="http://www.w3.org/1999/02/22-rdf-syntax-ns#"
   xmlns:svg="http://www.w3.org/2000/svg"
   xmlns="http://www.w3.org/2000/svg"
   xmlns:sodipodi="http://sodipodi.sourceforge.net/DTD/sodipodi-0.dtd"
   xmlns:inkscape="http://www.inkscape.org/namespaces/inkscape"
   inkscape:export-ydpi="96"
   inkscape:export-xdpi="96"
   inkscape:export-filename="C:\PROJETOS\pagina_lida\assets\icone.png"
   sodipodi:docname="Icone.svg"
   inkscape:version="1.0 (4035a4fb49, 2020-05-01)"
   id="svg2984"
   version="1.1"
   viewBox="0 0 135 135"
   height="135mm"
   width="135mm">
  <defs
     id="defs2978">
    <clipPath
       id="clipPath1101"
       clipPathUnits="userSpaceOnUse">
      <path
         id="path1099"
         d="M 0,500 H 500 V 0 H 0 Z" />
    </clipPath>
    <clipPath
       id="clipPath1109"
       clipPathUnits="userSpaceOnUse">
      <path
         id="path1107"
         d="M 194.553,185.196 H 356.524 V 40.8086 H 194.553 Z" />
    </clipPath>
    <clipPath
       id="clipPath1153"
       clipPathUnits="userSpaceOnUse">
      <path
         id="path1151"
         d="M 121.48,231.328 H 243.86 V 214.604 H 121.48 Z" />
    </clipPath>
    <clipPath
       id="clipPath1169"
       clipPathUnits="userSpaceOnUse">
      <path
         id="path1167"
         d="m 122.951,227.916 h 122.38 v -16.724 h -122.38 z" />
    </clipPath>
    <clipPath
       id="clipPath1185"
       clipPathUnits="userSpaceOnUse">
      <path
         id="path1183"
         d="M 123.939,224.844 H 248.476 V 207.356 H 123.939 Z" />
    </clipPath>
    <clipPath
       id="clipPath1201"
       clipPathUnits="userSpaceOnUse">
      <path
         id="path1199"
         d="M 124.136,222.237 H 248.621 V 203.496 H 124.136 Z" />
    </clipPath>
    <clipPath
       id="clipPath1217"
       clipPathUnits="userSpaceOnUse">
      <path
         id="path1215"
         d="M 124.136,219.554 H 248.621 V 200.029 H 124.136 Z" />
    </clipPath>
    <clipPath
       id="clipPath1233"
       clipPathUnits="userSpaceOnUse">
      <path
         id="path1231"
         d="m 123.669,246.7 h 122.38 v -16.724 h -122.38 z" />
    </clipPath>
    <clipPath
       id="clipPath1249"
       clipPathUnits="userSpaceOnUse">
      <path
         id="path1247"
         d="m 122.951,244.287 h 122.38 v -16.724 h -122.38 z" />
    </clipPath>
    <clipPath
       id="clipPath1265"
       clipPathUnits="userSpaceOnUse">
      <path
         id="path1263"
         d="M 123.939,241.215 H 248.476 V 223.727 H 123.939 Z" />
    </clipPath>
    <clipPath
       id="clipPath1281"
       clipPathUnits="userSpaceOnUse">
      <path
         id="path1279"
         d="M 124.136,238.608 H 248.621 V 219.867 H 124.136 Z" />
    </clipPath>
    <clipPath
       id="clipPath1297"
       clipPathUnits="userSpaceOnUse">
      <path
         id="path1295"
         d="M 124.136,235.925 H 248.621 V 216.4 H 124.136 Z" />
    </clipPath>
    <clipPath
       id="clipPath1313"
       clipPathUnits="userSpaceOnUse">
      <path
         id="path1311"
         d="m 123.939,256.781 h 118.984 v -16.26 H 123.939 Z" />
    </clipPath>
    <clipPath
       id="clipPath1329"
       clipPathUnits="userSpaceOnUse">
      <path
         id="path1327"
         d="M 124.136,253.344 H 245.331 V 235.925 H 124.136 Z" />
    </clipPath>
    <clipPath
       id="clipPath1345"
       clipPathUnits="userSpaceOnUse">
      <path
         id="path1343"
         d="m 124.136,250.661 h 121.446 v -18.19 H 124.136 Z" />
    </clipPath>
    <clipPath
       id="clipPath1361"
       clipPathUnits="userSpaceOnUse">
      <path
         id="path1359"
         d="M 124.136,217.318 H 248.621 V 196.781 H 124.136 Z" />
    </clipPath>
    <clipPath
       id="clipPath1377"
       clipPathUnits="userSpaceOnUse">
      <path
         id="path1375"
         d="M 123.939,214.81 H 247.67 V 194.468 H 123.939 Z" />
    </clipPath>
    <clipPath
       id="clipPath1393"
       clipPathUnits="userSpaceOnUse">
      <path
         id="path1391"
         d="M 124.136,212.252 H 247.67 V 191.667 H 124.136 Z" />
    </clipPath>
    <clipPath
       id="clipPath1409"
       clipPathUnits="userSpaceOnUse">
      <path
         id="path1407"
         d="M 123.644,210.53 H 245.912 V 188.419 H 123.644 Z" />
    </clipPath>
    <clipPath
       id="clipPath1425"
       clipPathUnits="userSpaceOnUse">
      <path
         id="path1423"
         d="M 122.951,208.391 H 243.86 V 185.558 H 122.951 Z" />
    </clipPath>
    <clipPath
       id="clipPath1441"
       clipPathUnits="userSpaceOnUse">
      <path
         id="path1439"
         d="m 259.448,247.698 h 122.743 v -29.5 H 259.448 Z" />
    </clipPath>
    <clipPath
       id="clipPath1473"
       clipPathUnits="userSpaceOnUse">
      <path
         id="path1471"
         d="m 230.532,201.31 h 12.119 v -24.394 h -12.119 z" />
    </clipPath>
    <clipPath
       id="clipPath1529"
       clipPathUnits="userSpaceOnUse">
      <path
         id="path1527"
         d="M 257.18,291.2 H 366.931 V 257.864 H 257.18 Z" />
    </clipPath>
    <clipPath
       id="clipPath1533"
       clipPathUnits="userSpaceOnUse">
      <path
         id="path1531"
         d="m 261.29,291.2 h 105.641 v -8.262 H 261.29 Z" />
    </clipPath>
    <clipPath
       id="clipPath1537"
       clipPathUnits="userSpaceOnUse">
      <path
         id="path1535"
         d="m 260.02,288.328 h 105.641 v -8.262 H 260.02 Z" />
    </clipPath>
    <clipPath
       id="clipPath1541"
       clipPathUnits="userSpaceOnUse">
      <path
         id="path1539"
         d="m 257.305,285.726 h 107.503 v -8.813 H 257.305 Z" />
    </clipPath>
    <clipPath
       id="clipPath1545"
       clipPathUnits="userSpaceOnUse">
      <path
         id="path1543"
         d="m 257.18,283.486 h 107.459 v -9.897 H 257.18 Z" />
    </clipPath>
    <clipPath
       id="clipPath1549"
       clipPathUnits="userSpaceOnUse">
      <path
         id="path1547"
         d="M 257.18,281.17 H 364.639 V 270.596 H 257.18 Z" />
    </clipPath>
    <clipPath
       id="clipPath1553"
       clipPathUnits="userSpaceOnUse">
      <path
         id="path1551"
         d="M 257.18,279.24 H 364.639 V 267.792 H 257.18 Z" />
    </clipPath>
    <clipPath
       id="clipPath1557"
       clipPathUnits="userSpaceOnUse">
      <path
         id="path1555"
         d="M 258.001,277.064 H 364.808 V 265.748 H 258.001 Z" />
    </clipPath>
    <clipPath
       id="clipPath1561"
       clipPathUnits="userSpaceOnUse">
      <path
         id="path1559"
         d="M 258.001,274.866 H 364.639 V 263.33 H 258.001 Z" />
    </clipPath>
    <clipPath
       id="clipPath1565"
       clipPathUnits="userSpaceOnUse">
      <path
         id="path1563"
         d="M 259.519,273.355 H 365.063 V 260.437 H 259.519 Z" />
    </clipPath>
    <clipPath
       id="clipPath1569"
       clipPathUnits="userSpaceOnUse">
      <path
         id="path1567"
         d="M 261.29,271.473 H 365.661 V 257.864 H 261.29 Z" />
    </clipPath>
    <clipPath
       id="clipPath1701"
       clipPathUnits="userSpaceOnUse">
      <path
         id="path1699"
         d="M 141.831,289.476 H 246.863 V 271.467 H 141.831 Z" />
    </clipPath>
    <clipPath
       id="clipPath1717"
       clipPathUnits="userSpaceOnUse">
      <path
         id="path1715"
         d="m 265.479,274.866 h 11.564 V 250.42 h -11.564 z" />
    </clipPath>
    <clipPath
       id="clipPath1861"
       clipPathUnits="userSpaceOnUse">
      <path
         id="path1859"
         d="m 224.685,314.265 h 24.654 V 296.06 h -24.654 z" />
    </clipPath>
    <clipPath
       id="clipPath1865"
       clipPathUnits="userSpaceOnUse">
      <path
         id="path1863"
         d="m 225.359,314.265 h 23.98 v -4.374 h -23.98 z" />
    </clipPath>
    <clipPath
       id="clipPath1869"
       clipPathUnits="userSpaceOnUse">
      <path
         id="path1867"
         d="m 224.722,305.416 h 24.194 v -1.917 h -24.194 z" />
    </clipPath>
    <clipPath
       id="clipPath1873"
       clipPathUnits="userSpaceOnUse">
      <path
         id="path1871"
         d="m 224.723,306.386 h 24.181 v -2.519 h -24.181 z" />
    </clipPath>
    <clipPath
       id="clipPath1877"
       clipPathUnits="userSpaceOnUse">
      <path
         id="path1875"
         d="m 224.724,306.984 h 24.181 v -2.52 h -24.181 z" />
    </clipPath>
    <clipPath
       id="clipPath1881"
       clipPathUnits="userSpaceOnUse">
      <path
         id="path1879"
         d="m 224.734,307.766 h 24.163 v -2.754 h -24.163 z" />
    </clipPath>
    <clipPath
       id="clipPath1885"
       clipPathUnits="userSpaceOnUse">
      <path
         id="path1883"
         d="m 224.757,308.805 h 24.119 v -3.253 h -24.119 z" />
    </clipPath>
    <clipPath
       id="clipPath1889"
       clipPathUnits="userSpaceOnUse">
      <path
         id="path1887"
         d="m 224.758,309.556 h 24.119 v -3.248 h -24.119 z" />
    </clipPath>
    <clipPath
       id="clipPath1893"
       clipPathUnits="userSpaceOnUse">
      <path
         id="path1891"
         d="m 224.772,310.478 h 24.094 v -3.483 h -24.094 z" />
    </clipPath>
    <clipPath
       id="clipPath1897"
       clipPathUnits="userSpaceOnUse">
      <path
         id="path1895"
         d="m 224.773,311.338 h 24.094 v -3.483 h -24.094 z" />
    </clipPath>
    <clipPath
       id="clipPath1901"
       clipPathUnits="userSpaceOnUse">
      <path
         id="path1899"
         d="m 224.789,312.217 h 24.065 v -3.74 h -24.065 z" />
    </clipPath>
    <clipPath
       id="clipPath1905"
       clipPathUnits="userSpaceOnUse">
      <path
         id="path1903"
         d="m 224.685,313.198 h 24.065 v -3.74 h -24.065 z" />
    </clipPath>
    <clipPath
       id="clipPath1909"
       clipPathUnits="userSpaceOnUse">
      <path
         id="path1907"
         d="m 225.415,297.215 h 23.336 v -0.321 h -23.336 z" />
    </clipPath>
    <clipPath
       id="clipPath1913"
       clipPathUnits="userSpaceOnUse">
      <path
         id="path1911"
         d="m 224.817,304.641 h 24.002 v -1.62 h -24.002 z" />
    </clipPath>
    <clipPath
       id="clipPath1917"
       clipPathUnits="userSpaceOnUse">
      <path
         id="path1915"
         d="m 224.823,303.847 h 23.986 v -1.377 h -23.986 z" />
    </clipPath>
    <clipPath
       id="clipPath1921"
       clipPathUnits="userSpaceOnUse">
      <path
         id="path1919"
         d="m 224.842,302.789 h 23.944 v -0.859 h -23.944 z" />
    </clipPath>
    <clipPath
       id="clipPath1925"
       clipPathUnits="userSpaceOnUse">
      <path
         id="path1923"
         d="m 224.839,302.033 h 23.945 v -0.864 h -23.945 z" />
    </clipPath>
    <clipPath
       id="clipPath1929"
       clipPathUnits="userSpaceOnUse">
      <path
         id="path1927"
         d="m 224.849,301.101 h 23.921 v -0.649 h -23.921 z" />
    </clipPath>
    <clipPath
       id="clipPath1933"
       clipPathUnits="userSpaceOnUse">
      <path
         id="path1931"
         d="m 224.846,300.234 h 23.921 v -0.649 h -23.921 z" />
    </clipPath>
    <clipPath
       id="clipPath1937"
       clipPathUnits="userSpaceOnUse">
      <path
         id="path1935"
         d="m 224.858,299.346 h 23.893 v -0.478 h -23.893 z" />
    </clipPath>
    <clipPath
       id="clipPath1941"
       clipPathUnits="userSpaceOnUse">
      <path
         id="path1939"
         d="m 224.75,298.375 h 23.894 v -0.478 H 224.75 Z" />
    </clipPath>
    <clipPath
       id="clipPath1945"
       clipPathUnits="userSpaceOnUse">
      <path
         id="path1943"
         d="m 225.222,296.461 h 24.004 v -0.401 h -24.004 z" />
    </clipPath>
    <clipPath
       id="clipPath2213"
       clipPathUnits="userSpaceOnUse">
      <path
         id="path2211"
         d="m 207.318,314.921 h 5.449 v -21.02 h -5.449 z" />
    </clipPath>
    <clipPath
       id="clipPath2229"
       clipPathUnits="userSpaceOnUse">
      <path
         id="path2227"
         d="m 202.561,314.35 h 5.432 v -20.462 h -5.432 z" />
    </clipPath>
    <clipPath
       id="clipPath2249"
       clipPathUnits="userSpaceOnUse">
      <path
         id="path2247"
         d="m 183.871,314.943 h 39.602 v -7.089 h -39.602 z" />
    </clipPath>
  </defs>
  <sodipodi:namedview
     inkscape:window-maximized="1"
     inkscape:window-y="-8"
     inkscape:window-x="54"
     inkscape:window-height="1057"
     inkscape:window-width="1858"
     showgrid="false"
     inkscape:document-rotation="0"
     inkscape:current-layer="layer1"
     inkscape:document-units="mm"
     inkscape:cy="363.4465"
     inkscape:cx="271.66797"
     inkscape:zoom="0.7"
     inkscape:pageshadow="2"
     inkscape:pageopacity="0.0"
     borderopacity="1.0"
     bordercolor="#666666"
     pagecolor="#ffffff"
     id="base" />
  <metadata
     id="metadata2981">
    <rdf:RDF>
      <cc:Work
         rdf:about="">
        <dc:format>image/svg+xml</dc:format>
        <dc:type
           rdf:resource="http://purl.org/dc/dcmitype/StillImage" />
        <dc:title></dc:title>
      </cc:Work>
    </rdf:RDF>
  </metadata>
  <g
     id="layer1"
     inkscape:groupmode="layer"
     inkscape:label="Layer 1">
    <g
       transform="matrix(0.35277777,0,0,-0.35277777,3.6158585,212.86458)"
       id="g1103">
      <g
         id="g1105" />
      <g
         id="g1117">
        <g
           clip-path="url(#clipPath1109)"
           opacity="0.399994"
           id="g1115">
          <g
             transform="translate(345.5977,185.1963)"
             id="g1113" />
        </g>
      </g>
    </g>
    <g
       id="g2267"
       transform="matrix(0.35277777,0,0,-0.35277777,128.50092,156.00086)" />
    <g
       transform="matrix(0.08554297,0,0,0.08554297,56.926538,123.33706)"
       id="g6365" />
    <g
       transform="matrix(0.08554297,0,0,0.08554297,56.926538,123.33706)"
       id="g6367" />
    <g
       transform="matrix(0.08554297,0,0,0.08554297,56.926538,123.33706)"
       id="g6369" />
    <g
       transform="matrix(0.08554297,0,0,0.08554297,56.926538,123.33706)"
       id="g6371" />
    <g
       transform="matrix(0.08554297,0,0,0.08554297,56.926538,123.33706)"
       id="g6373" />
    <g
       transform="matrix(0.08554297,0,0,0.08554297,56.926538,123.33706)"
       id="g6375" />
    <g
       transform="matrix(0.08554297,0,0,0.08554297,56.926538,123.33706)"
       id="g6377" />
    <g
       transform="matrix(0.08554297,0,0,0.08554297,56.926538,123.33706)"
       id="g6379" />
    <g
       transform="matrix(0.08554297,0,0,0.08554297,56.926538,123.33706)"
       id="g6381" />
    <g
       transform="matrix(0.08554297,0,0,0.08554297,56.926538,123.33706)"
       id="g6383" />
    <g
       transform="matrix(0.08554297,0,0,0.08554297,56.926538,123.33706)"
       id="g6385" />
    <g
       transform="matrix(0.08554297,0,0,0.08554297,56.926538,123.33706)"
       id="g6387" />
    <g
       transform="matrix(0.08554297,0,0,0.08554297,56.926538,123.33706)"
       id="g6389" />
    <g
       transform="matrix(0.08554297,0,0,0.08554297,56.926538,123.33706)"
       id="g6391" />
    <g
       transform="matrix(0.08554297,0,0,0.08554297,56.926538,123.33706)"
       id="g6393" />
    <g
       transform="matrix(0.99655511,0,0,1.0096416,-19.888392,-72.173096)"
       id="g7163">
      <path
         style="fill:#bee3db;fill-opacity:1;fill-rule:nonzero;stroke-width:2.33563"
         fill="#2fa8cc"
         d="M 151.89934,71.809075 104.0399,100.09125 c -5.056084,2.70085 -10.629655,4.2933 -16.349424,4.67126 -5.761078,-0.1236 -11.392647,-1.73262 -16.349426,-4.67126 L 23.481611,71.809075 c -0.722088,-0.426994 -1.617705,-0.433944 -2.346332,-0.01821 -0.728627,0.415738 -1.178333,1.190298 -1.178137,2.029187 v 91.339568 c 1.02e-4,1.65236 0.87314,3.18173 2.295926,4.02196 L 71.34105,198.1878 c 0,3.87715 7.310529,7.00689 16.349426,7.00689 9.038896,0 16.349424,-3.12974 16.349424,-7.00689 l 49.08798,-29.00622 c 1.42279,-0.84023 2.29583,-2.3696 2.29593,-4.02196 V 73.820055 c 2e-4,-0.838889 -0.44951,-1.613449 -1.17814,-2.029187 -0.72862,-0.415737 -1.62424,-0.408787 -2.34633,0.01821 z"
         id="Shape" />
      <path
         style="fill:#555b6e;fill-opacity:1;fill-rule:nonzero;stroke-width:2.33563"
         fill="#2980ba"
         d="m 71.34105,100.09125 c 4.956779,2.93864 10.588348,4.54766 16.349426,4.67126 5.719769,-0.37796 11.29334,-1.97041 16.349424,-4.67126 v 98.09655 c 0,3.87014 -7.31987,7.00689 -16.349424,7.00689 -9.029554,0 -16.349426,-3.13675 -16.349426,-7.00689 z"
         id="path7073" />
      <path
         style="fill:#faf9f9;fill-opacity:1;fill-rule:nonzero;stroke-width:2.33563"
         fill="#67b9cc"
         d="m 29.299671,93.084349 c -1.289934,0 -2.335632,-1.045698 -2.335632,-2.335632 v -4.671265 c 0,-1.289934 1.045698,-2.335632 2.335632,-2.335632 1.289934,0 2.335632,1.045698 2.335632,2.335632 v 4.671265 c 0,1.289934 -1.045698,2.335632 -2.335632,2.335632 z"
         id="path7075" />
      <path
         style="fill:#faf9f9;fill-opacity:1;fill-rule:nonzero;stroke-width:2.33563"
         fill="#67b9cc"
         d="m 29.299671,149.13952 c -1.289934,0 -2.335632,-1.0457 -2.335632,-2.33563 v -46.71264 c 0,-1.289939 1.045698,-2.335637 2.335632,-2.335637 1.289934,0 2.335632,1.045698 2.335632,2.335637 v 46.71264 c 0,1.28993 -1.045698,2.33563 -2.335632,2.33563 z"
         id="path7077" />
      <path
         style="fill:#e55d3e;fill-opacity:1;fill-rule:nonzero;stroke-width:2.33563"
         fill="#f0c419"
         d="m 141.41002,77.996165 v 32.556375 c -5.6e-4,0.71784 -0.33117,1.39555 -0.89657,1.83783 -0.56539,0.44229 -1.30276,0.60002 -1.99962,0.42774 l -5.02161,-1.26125 c -0.86881,-0.20974 -1.78162,0.0885 -2.35899,0.77076 l -6.60983,7.94115 c -0.62845,0.75841 -1.66512,1.04108 -2.59154,0.70662 -0.92643,-0.33445 -1.54347,-1.21414 -1.54253,-2.19909 V 90.421728 Z"
         id="path7079" />
      <path
         style="fill:#bee3db;fill-opacity:1;fill-rule:nonzero;stroke-width:2.33563"
         fill="#2fa8cc"
         d="m 80.683579,181.83837 c -1.289934,0 -2.335632,-1.04569 -2.335632,-2.33563 v -49.04828 c 0,-1.28993 1.045698,-2.33563 2.335632,-2.33563 1.289935,0 2.335632,1.0457 2.335632,2.33563 v 49.04828 c 0,1.28994 -1.045697,2.33563 -2.335632,2.33563 z"
         id="path7081" />
      <path
         style="fill:#bee3db;fill-opacity:1;fill-rule:nonzero;stroke-width:2.33563"
         fill="#2fa8cc"
         d="m 94.697372,181.83837 c -1.289934,0 -2.335632,-1.04569 -2.335632,-2.33563 v -49.04828 c 0,-1.28993 1.045698,-2.33563 2.335632,-2.33563 1.289935,0 2.335633,1.0457 2.335633,2.33563 v 49.04828 c 0,1.28994 -1.045698,2.33563 -2.335633,2.33563 z"
         id="path7083" />
      <path
         style="fill:#89b0ae;fill-opacity:1;fill-rule:nonzero;stroke-width:2.33563"
         fill="#3b97d3"
         d="m 104.0399,184.174 v 14.0138 c 0,3.87715 -7.310528,7.00689 -16.349424,7.00689 -9.038897,0 -16.349426,-3.12974 -16.349426,-7.00689 V 184.174 c 0,3.87715 7.310529,7.0069 16.349426,7.0069 9.038896,0 16.349424,-3.12975 16.349424,-7.0069 z"
         id="path7085" />
      <path
         style="fill:#89b0ae;fill-opacity:1;fill-rule:nonzero;stroke-width:2.33563"
         fill="#3b97d3"
         d="m 104.0399,100.09125 v 14.01379 c 0,3.87715 -7.310528,7.0069 -16.349424,7.0069 -9.038897,0 -16.349426,-3.12975 -16.349426,-7.0069 v -14.01379 c 4.956779,2.93864 10.588348,4.54766 16.349426,4.67126 5.719769,-0.37796 11.29334,-1.97041 16.349424,-4.67126 z"
         id="path7087" />
      <path
         style="fill:#ffd6ba;fill-opacity:0.60241;fill-rule:nonzero;stroke-width:2.33563"
         fill="#f5efca"
         d="M 148.48698,73.815383 104.0399,100.09125 c -4.961132,2.62199 -10.40531,4.20358 -15.999079,4.6479 C 89.138568,96.517728 92.875579,91.753039 99.065005,86.077452 112.09783,74.142372 131.7405,70.475429 148.48698,73.815383 Z"
         id="path7089" />
      <path
         style="fill:#ffd6ba;fill-opacity:1;fill-rule:nonzero;stroke-width:2.33563"
         fill="#f9eab0"
         d="M 87.340131,104.73915 C 81.697515,104.58269 76.18919,102.98247 71.34105,100.09125 L 26.89397,73.815383 c 16.746483,-3.339954 36.389149,0.326989 49.421977,12.262069 6.189425,5.675587 9.926437,10.440276 11.024184,18.661698 z"
         id="path7091" />
    </g>
  </g>
</svg>
